<svg width="311" height="311" viewBox="0 0 311 311" fill="none" xmlns="http://www.w3.org/2000/svg">
<rect width="311" height="311" rx="65" fill="#121F3D"/>
<path d="M140.822 40.8794L54.8762 126.847C51.1112 130.608 48.1244 135.075 46.0867 139.991C44.0489 144.907 43 150.177 43 155.499C43 160.821 44.0489 166.091 46.0867 171.007C48.1244 175.923 51.1112 180.39 54.8762 184.151L140.843 270.118C144.605 273.883 149.071 276.87 153.988 278.908C158.904 280.946 164.174 281.995 169.496 281.995C174.818 281.995 180.087 280.946 185.004 278.908C189.92 276.87 194.387 273.883 198.148 270.118L226.811 241.466L198.148 212.814L169.496 241.466L83.5179 155.499L169.485 69.5317L226.8 126.847L169.485 184.151L198.148 212.814L255.452 155.499C259.219 151.737 262.207 147.27 264.246 142.353C266.285 137.436 267.334 132.165 267.334 126.841C267.334 121.518 266.285 116.247 264.246 111.33C262.207 106.413 259.219 101.946 255.452 98.1839L198.021 40.8794C194.272 37.1142 189.816 34.1266 184.909 32.088C180.002 30.0494 174.741 29 169.427 29C164.114 29 158.852 30.0494 153.945 32.088C149.038 34.1266 144.572 37.1142 140.822 40.8794Z" fill="#98CA3F"/>
</svg>
