<svg width="72" height="72" viewBox="0 0 72 72" fill="none" xmlns="http://www.w3.org/2000/svg">
<g clip-path="url(#clip0_22_144)">
<path d="M0 62.7163C0 67.8441 4.15646 72 9.28372 72H62.7163C67.8441 72 72 67.8435 72 62.7163V9.28372C72 4.1559 67.8435 0 62.7163 0H9.28372C4.1559 0 0 4.15646 0 9.28372V62.7163Z" fill="#563D7C"/>
<path d="M29.8569 31.8482V21.6519H38.832C39.6868 21.6519 40.5111 21.7231 41.3048 21.8656C42.0985 22.0081 42.8007 22.2625 43.4112 22.6288C44.0218 22.9951 44.5102 23.5039 44.8766 24.1552C45.2429 24.8065 45.4261 25.6409 45.4261 26.6585C45.4261 28.4902 44.8766 29.813 43.7776 30.6271C42.6785 31.4412 41.2743 31.8482 39.5647 31.8482H29.8569ZM20.2711 14.2031V57.7969H41.3964C43.3502 57.7969 45.2531 57.5527 47.1051 57.0642C48.9571 56.5758 50.6056 55.8227 52.0506 54.8051C53.4956 53.7875 54.6455 52.4749 55.5002 50.8671C56.355 49.2592 56.7824 47.3564 56.7824 45.1583C56.7824 42.4312 56.121 40.1009 54.7981 38.1675C53.4752 36.234 51.4706 34.8806 48.7841 34.1073C50.7379 33.1711 52.2134 31.9703 53.2107 30.505C54.2079 29.0396 54.7065 27.208 54.7065 25.01C54.7065 22.9748 54.3707 21.2652 53.6991 19.8813C53.0275 18.4974 52.0811 17.3882 50.86 16.5538C49.6389 15.7193 48.1736 15.119 46.464 14.7526C44.7544 14.3863 42.8617 14.2031 40.7858 14.2031H20.2711ZM29.8569 50.3481V38.3812H40.2974C42.3733 38.3812 44.0421 38.8594 45.3039 39.816C46.5658 40.7725 47.1967 42.3701 47.1967 44.6088C47.1967 45.7486 47.0033 46.6847 46.6166 47.4174C46.23 48.1501 45.711 48.7301 45.0597 49.1575C44.4085 49.5849 43.6554 49.8902 42.8007 50.0733C41.9459 50.2565 41.0504 50.3481 40.1142 50.3481H29.8569Z" fill="white"/>
</g>
<defs>
<clipPath id="clip0_22_144">
<rect width="72" height="72" fill="white"/>
</clipPath>
</defs>
</svg>
