<svg width="72" height="72" viewBox="0 0 72 72" fill="none" xmlns="http://www.w3.org/2000/svg">
<g clip-path="url(#clip0_21_141)">
<path d="M70.6422 32.7919L39.2059 1.358C37.3969 -0.452667 34.4604 -0.452667 32.649 1.358L26.1213 7.88574L34.402 16.1665C36.3264 15.5163 38.5329 15.9524 40.067 17.4866C41.6083 19.0302 42.0412 21.2556 41.3753 23.1864L49.3558 31.1669C51.2866 30.5017 53.5143 30.9323 55.0564 32.4767C57.2115 34.631 57.2115 38.1228 55.0564 40.2787C52.9005 42.4346 49.4087 42.4346 47.2521 40.2787C45.631 38.6561 45.2305 36.275 46.0513 34.2779L38.6087 26.8354L38.6079 46.4209C39.1333 46.6816 39.6294 47.0284 40.067 47.4645C42.2221 49.6188 42.2221 53.1106 40.067 55.2681C37.9111 57.4232 34.4178 57.4232 32.265 55.2681C30.1099 53.1106 30.1099 49.6188 32.265 47.4645C32.7975 46.9328 33.4137 46.5307 34.071 46.2606V26.4925C33.4137 26.2239 32.7983 25.8242 32.265 25.2885C30.6321 23.658 30.2395 21.2619 31.0761 19.2569L22.9139 11.0931L1.35884 32.6466C-0.452621 34.4588 -0.452621 37.3952 1.35884 39.2059L32.7951 70.6406C34.605 72.4513 37.5406 72.4513 39.3529 70.6406L70.6422 39.3521C72.4529 37.5406 72.4529 34.6026 70.6422 32.7919Z" fill="#DE4C36"/>
</g>
<defs>
<clipPath id="clip0_21_141">
<rect width="72" height="72" fill="white"/>
</clipPath>
</defs>
</svg>
