<svg width="221" height="222" viewBox="0 0 221 222" fill="none" xmlns="http://www.w3.org/2000/svg">
<g filter="url(#filter0_d_716_71)">
<path d="M106.008 179.713C140.428 164.274 155.767 123.75 146.244 102.519C162.247 138.195 147.317 179.632 112.897 195.072C78.4775 210.512 37.6014 194.107 21.5981 158.431C32.135 181.921 71.588 195.153 106.008 179.713Z" fill="#1A9EFF"/>
<path d="M165.708 47.5119C132.968 14.5526 82.8671 11.2372 65.0071 28.9784C95.018 -0.833075 145.888 1.71862 178.628 34.6778C211.368 67.637 213.58 118.523 183.569 148.334C203.329 128.706 198.448 80.471 165.708 47.5119Z" fill="#004980"/>
<path d="M59.0458 165.541C94.679 177.928 133.643 158.975 141.284 136.996C128.445 173.929 89.151 193.828 53.5187 181.441C17.886 169.055 -0.592322 129.073 12.2463 92.1401C3.79308 116.458 23.4131 153.155 59.0458 165.541Z" fill="#FFD643"/>
<path d="M59.0458 165.541C94.679 177.928 133.643 158.975 141.284 136.996C128.445 173.929 89.151 193.828 53.5187 181.441C17.886 169.055 -0.592322 129.073 12.2463 92.1401C3.79308 116.458 23.4131 153.155 59.0458 165.541Z" fill="#4DB3FF"/>
<path d="M179.336 89.897C163.627 46.1768 115.317 23.5174 88.3495 33.2074C133.665 16.9247 183.136 39.1669 198.845 82.887C214.554 126.607 190.554 175.249 145.238 191.531C175.075 180.81 195.046 133.617 179.336 89.897Z" fill="#0066B3"/>
<path d="M160.6 140.428C174.146 95.9899 148.968 48.9435 121.557 40.5879C167.617 54.6282 193.975 102.034 180.429 146.472C166.883 190.91 118.563 215.552 72.5032 201.512C102.83 210.756 147.054 184.866 160.6 140.428Z" fill="#0084E6"/>
<path d="M83.555 156.796C116.109 156.796 142.498 130.407 142.498 97.8531C142.498 65.2995 116.109 38.9097 83.555 38.9097C51.0014 38.9097 24.6116 65.2995 24.6116 97.8531C24.6116 130.407 51.0014 156.796 83.555 156.796Z" fill="#002C4D"/>
</g>
<defs>
<filter id="filter0_d_716_71" x="0.16748" y="0.1875" width="220.539" height="221.268" filterUnits="userSpaceOnUse" color-interpolation-filters="sRGB">
<feFlood flood-opacity="0" result="BackgroundImageFix"/>
<feColorMatrix in="SourceAlpha" type="matrix" values="0 0 0 0 0 0 0 0 0 0 0 0 0 0 0 0 0 0 127 0" result="hardAlpha"/>
<feOffset dx="4" dy="4"/>
<feGaussianBlur stdDeviation="6"/>
<feComposite in2="hardAlpha" operator="out"/>
<feColorMatrix type="matrix" values="0 0 0 0 0 0 0 0 0 0 0 0 0 0 0 0 0 0 0.25 0"/>
<feBlend mode="normal" in2="BackgroundImageFix" result="effect1_dropShadow_716_71"/>
<feBlend mode="normal" in="SourceGraphic" in2="effect1_dropShadow_716_71" result="shape"/>
</filter>
</defs>
</svg>
