<svg width="37" height="36" viewBox="0 0 37 36" fill="none" xmlns="http://www.w3.org/2000/svg">
<g clip-path="url(#clip0_107_288)">
<path d="M0.980469 18C0.980469 8.0589 9.03937 0 18.9805 0C28.9216 0 36.9805 8.0589 36.9805 18C36.9805 27.9411 28.9216 36 18.9805 36C9.03937 36 0.980469 27.9411 0.980469 18Z" fill="#55ACEE"/>
<path d="M18.4414 14.6307L18.4792 15.2535L17.8496 15.1773C15.5581 14.8849 13.5562 13.8934 11.8564 12.2283L11.0255 11.4021L10.8115 12.0122C10.3582 13.3723 10.6477 14.8086 11.5921 15.7746C12.0957 16.3086 11.9824 16.3848 11.1136 16.0671C10.8115 15.9654 10.547 15.8891 10.5219 15.9272C10.4338 16.0162 10.7359 17.1729 10.9751 17.6305C11.3025 18.2661 11.9698 18.8889 12.7 19.2575L13.317 19.5498L12.5867 19.5626C11.8816 19.5626 11.8564 19.5753 11.932 19.8422C12.1838 20.6684 13.1785 21.5455 14.2864 21.9268L15.0671 22.1937L14.3872 22.6005C13.3799 23.1852 12.1964 23.5157 11.0129 23.5411C10.4463 23.5539 9.98047 23.6046 9.98047 23.6428C9.98047 23.7699 11.5165 24.4818 12.4105 24.7614C15.0922 25.5876 18.2777 25.2317 20.6699 23.8208C22.3696 22.8166 24.0694 20.8209 24.8626 18.8889C25.2907 17.8593 25.7188 15.978 25.7188 15.0756C25.7188 14.4909 25.7565 14.4146 26.4616 13.7155C26.8771 13.3087 27.2674 12.8638 27.343 12.7368C27.4688 12.4953 27.4563 12.4953 26.8141 12.7113C25.744 13.0926 25.5928 13.0418 26.1217 12.4698C26.512 12.063 26.9778 11.3258 26.9778 11.1097C26.9778 11.0716 26.7889 11.1351 26.5749 11.2495C26.3483 11.3766 25.8447 11.5673 25.4669 11.6817L24.787 11.8978L24.1701 11.4783C23.8302 11.2495 23.3517 10.9953 23.0999 10.9191C22.4578 10.7411 21.4757 10.7665 20.8966 10.9699C19.3227 11.5419 18.328 13.0164 18.4414 14.6307Z" fill="white"/>
</g>
<defs>
<clipPath id="clip0_107_288">
<rect width="36" height="36" fill="white" transform="translate(0.980469)"/>
</clipPath>
</defs>
</svg>
