<svg width="72" height="72" viewBox="0 0 72 72" fill="none" xmlns="http://www.w3.org/2000/svg">
<g clip-path="url(#clip0_53_2)">
<path d="M0 36V72H36H72V36V0H36H0V36Z" fill="#007ACC"/>
<path d="M15.9219 36.2388L15.8991 39.1873H20.5848H25.2705L25.2705 52.5016V65.8159H28.5848H31.8991V52.5016L31.8991 39.1873H36.5848H41.2705L41.2705 36.2959C41.2705 34.6959 41.2362 33.3588 41.1905 33.3245C41.1562 33.2788 35.4534 33.2559 28.5391 33.2673L15.9562 33.3016L15.9219 36.2388Z" fill="white"/>
<path d="M58.0968 33.2179C59.9254 33.675 61.3197 34.4865 62.5997 35.8122C63.2626 36.5207 64.2454 37.8122 64.3254 38.1207C64.3483 38.2122 61.2168 40.315 59.3197 41.4922C59.2511 41.5379 58.9768 41.2407 58.6683 40.7836C57.7425 39.435 56.7711 38.8522 55.2854 38.7493C53.1025 38.6007 51.6968 39.7436 51.7083 41.6522C51.7083 42.2122 51.7883 42.5436 52.0168 43.0007C52.4968 43.995 53.3883 44.5893 56.1883 45.8007C61.3425 48.0179 63.5483 49.4807 64.9197 51.5607C66.4511 53.8807 66.794 57.5836 65.754 60.3379C64.6111 63.3322 61.7768 65.3665 57.7883 66.0407C56.554 66.2579 53.6283 66.2236 52.3025 65.9836C49.4111 65.4693 46.6683 64.0407 44.9768 62.1665C44.314 61.435 43.0226 59.5265 43.1026 59.3893C43.1368 59.3436 43.434 59.1607 43.7654 58.9665C44.0854 58.7836 45.2968 58.0865 46.4397 57.4236L48.5083 56.2236L48.9426 56.8636C49.5483 57.7893 50.874 59.0579 51.674 59.4807C53.9711 60.6922 57.1254 60.5207 58.6797 59.1264C59.3425 58.5207 59.6168 57.8922 59.6168 56.9665C59.6168 56.1322 59.514 55.7665 59.0797 55.1379C58.5197 54.3379 57.3768 53.6636 54.1311 52.2579C50.4168 50.6579 48.8168 49.6636 47.354 48.0865C46.5083 47.1722 45.7083 45.7093 45.3768 44.4865C45.1026 43.4693 45.034 40.9207 45.2511 39.8922C46.0168 36.3036 48.7254 33.8007 52.634 33.0579C53.9026 32.8179 56.8511 32.9093 58.0968 33.2179Z" fill="white"/>
</g>
<defs>
<clipPath id="clip0_53_2">
<rect width="72" height="72" fill="white"/>
</clipPath>
</defs>
</svg>
