<svg width="36" height="37" viewBox="0 0 36 37" fill="none" xmlns="http://www.w3.org/2000/svg">
<g clip-path="url(#clip0_8_2)">
<path d="M17.8274 31.5165C23.9541 28.7623 26.6845 21.5338 24.9894 17.7466C27.8379 24.1105 25.1805 31.502 19.0537 34.2562C12.927 37.0103 5.65105 34.084 2.80249 27.7202C4.67806 31.9103 11.7006 34.2706 17.8274 31.5165Z" fill="#D0D0D0"/>
<path d="M28.454 7.93453C22.6263 2.05531 13.7084 1.46395 10.5293 4.62859C15.8713 -0.689155 24.9261 -0.233995 30.7538 5.64523C36.5815 11.5245 36.9753 20.6014 31.6333 25.919C35.1506 22.4177 34.2817 13.8138 28.454 7.93453Z" fill="#333333"/>
<path d="M9.46816 28.9885C15.8108 31.198 22.7465 27.8172 24.1065 23.8965C21.8213 30.4846 14.827 34.0342 8.48434 31.8247C2.14175 29.6152 -1.14738 22.4833 1.13789 15.8953C-0.366774 20.233 3.12556 26.779 9.46816 28.9885Z" fill="#FFD643"/>
<path d="M9.46816 28.9885C15.8108 31.198 22.7465 27.8172 24.1065 23.8965C21.8213 30.4846 14.827 34.0342 8.48434 31.8247C2.14175 29.6152 -1.14738 22.4833 1.13789 15.8953C-0.366774 20.233 3.12556 26.779 9.46816 28.9885Z" fill="#EEEEEE"/>
<path d="M30.8797 15.4951C28.0835 7.69644 19.4844 3.65447 14.6841 5.38301C22.7502 2.47854 31.556 6.44604 34.3522 14.2447C37.1485 22.0434 32.8764 30.7201 24.8103 33.6245C30.1212 31.7122 33.676 23.2939 30.8797 15.4951Z" fill="#7C7C7C"/>
<path d="M27.5447 24.5087C29.9559 16.5819 25.4743 8.18992 20.5952 6.69946C28.7938 9.20392 33.4854 17.6601 31.0743 25.5869C28.6631 33.5136 20.0622 37.9092 11.8635 35.4048C17.2617 37.0538 25.1335 32.4354 27.5447 24.5087Z" fill="#B7B7B7"/>
<path d="M13.8308 27.4285C19.6253 27.4285 24.3227 22.7211 24.3227 16.9142C24.3227 11.1074 19.6253 6.40002 13.8308 6.40002C8.03625 6.40002 3.33887 11.1074 3.33887 16.9142C3.33887 22.7211 8.03625 27.4285 13.8308 27.4285Z" fill="#333333"/>
</g>
<defs>
<clipPath id="clip0_8_2">
<rect width="36" height="37" fill="white"/>
</clipPath>
</defs>
</svg>
