<svg width="37" height="36" viewBox="0 0 37 36" fill="none" xmlns="http://www.w3.org/2000/svg">
<g clip-path="url(#clip0_107_291)">
<path fill-rule="evenodd" clip-rule="evenodd" d="M4.98047 36H32.9805C35.1896 36 36.9805 34.2091 36.9805 32V4C36.9805 1.79086 35.1896 0 32.9805 0H4.98047C2.77133 0 0.980469 1.79086 0.980469 4V32C0.980469 34.2091 2.77133 36 4.98047 36Z" fill="#007EBB"/>
<path fill-rule="evenodd" clip-rule="evenodd" d="M31.9805 31H26.6383V21.9011C26.6383 19.4064 25.6904 18.0123 23.7158 18.0123C21.5678 18.0123 20.4455 19.4631 20.4455 21.9011V31H15.2971V13.6667H20.4455V16.0015C20.4455 16.0015 21.9935 13.1371 25.6717 13.1371C29.3483 13.1371 31.9805 15.3822 31.9805 20.0256V31ZM9.15514 11.397C7.4015 11.397 5.98047 9.96483 5.98047 8.1985C5.98047 6.43218 7.4015 5 9.15514 5C10.9088 5 12.329 6.43218 12.329 8.1985C12.329 9.96483 10.9088 11.397 9.15514 11.397ZM6.49674 31H11.8652V13.6667H6.49674V31Z" fill="white"/>
</g>
<defs>
<clipPath id="clip0_107_291">
<rect width="36" height="36" fill="white" transform="translate(0.980469)"/>
</clipPath>
</defs>
</svg>
