<svg width="72" height="72" viewBox="0 0 72 72" fill="none" xmlns="http://www.w3.org/2000/svg">
<g clip-path="url(#clip0_21_137)">
<path d="M71.9789 0H0.0210938C0.00944399 0 0 0.00944399 0 0.0210938V71.9789C0 71.9906 0.00944399 72 0.0210938 72H71.9789C71.9906 72 72 71.9906 72 71.9789V0.0210938C72 0.00944399 71.9906 0 71.9789 0Z" fill="white"/>
<path d="M36 41.0625C38.7959 41.0625 41.0625 38.7959 41.0625 36C41.0625 33.2041 38.7959 30.9375 36 30.9375C33.2041 30.9375 30.9375 33.2041 30.9375 36C30.9375 38.7959 33.2041 41.0625 36 41.0625Z" fill="#61DAFB"/>
<path d="M44.6442 40.9824C47.9553 35.021 50.1628 28.8787 50.7812 23.9065C51.3996 18.9344 50.3783 15.5396 47.9418 14.4689C45.5054 13.3982 41.8534 14.7393 37.7891 18.1971C33.7248 21.6549 29.5811 26.9464 26.2693 32.9075C22.9576 38.8687 20.749 45.0113 20.1295 49.9844C19.5099 54.9576 20.5301 58.3538 22.9656 59.4262C25.4011 60.4986 29.0525 59.1593 33.1166 55.7028C37.1807 52.2464 41.3248 46.9559 44.6372 40.9951L44.6442 40.9824ZM27.3628 40.9951C30.6753 46.9559 34.8193 52.2464 38.8834 55.7028C42.9475 59.1593 46.5989 60.4986 49.0344 59.4262C51.4699 58.3538 52.4901 54.9576 51.8705 49.9844C51.251 45.0113 49.0424 38.8687 45.7307 32.9075C42.4189 26.9464 38.2752 21.6549 34.2109 18.1971C30.1466 14.7393 26.4946 13.3982 24.0582 14.4689C21.6217 15.5396 20.6004 18.9344 21.2188 23.9065C21.8372 28.8787 24.0447 35.021 27.3558 40.9824L27.3628 40.9951ZM36.007 45.9774C42.8316 45.9767 49.376 44.9243 54.2007 43.0516C59.0254 41.179 61.7353 38.6395 61.7344 35.9917C61.7334 33.3439 59.0217 30.8047 54.1957 28.9325C49.3697 27.0604 42.8246 26.0087 36 26.0087C29.1754 26.0087 22.6303 27.0604 17.8043 28.9325C12.9783 30.8047 10.2666 33.3439 10.2656 35.9917C10.2647 38.6395 12.9746 41.179 17.7993 43.0516C22.624 44.9243 29.1684 45.9767 35.993 45.9774H36.007Z" stroke="#61DAFB" stroke-width="2"/>
</g>
<defs>
<clipPath id="clip0_21_137">
<rect width="72" height="72" rx="5" fill="white"/>
</clipPath>
</defs>
</svg>
