<svg width="97" height="72" viewBox="0 0 97 72" fill="none" xmlns="http://www.w3.org/2000/svg">
<path d="M83.5246 41.39C80.1406 41.4075 77.1995 42.2142 74.7368 43.4066C73.8332 41.6355 72.9296 40.0572 72.7701 38.8998C72.5929 37.5496 72.3803 36.7254 72.5929 35.112C72.8056 33.4987 73.7623 31.2015 73.7446 31.0261C73.7269 30.8507 73.532 30.0266 71.5831 30.009C69.6341 29.9915 67.951 30.3773 67.7561 30.8858C67.5612 31.3944 67.1891 32.5518 66.9411 33.7442C66.6045 35.4978 63.0433 41.7582 61.0057 45.0375C60.3502 43.7574 59.7832 42.6351 59.6592 41.7407C59.482 40.3904 59.2694 39.5662 59.4821 37.9529C59.6947 36.3396 60.6514 34.0423 60.6337 33.867C60.616 33.6916 60.4211 32.8674 58.4722 32.8499C56.5232 32.8323 54.8401 33.2181 54.6452 33.7267C54.4503 34.2352 54.2377 35.4277 53.8302 36.5851C53.4227 37.7425 48.6921 48.194 47.4519 50.8946C46.8141 52.2799 46.2648 53.3847 45.8751 54.1388C45.8751 54.1388 45.8573 54.1914 45.8042 54.2791C45.4676 54.9279 45.2727 55.2786 45.2727 55.2786C45.2727 55.2786 45.2727 55.2786 45.2727 55.2962C45.0069 55.7696 44.7234 56.208 44.5817 56.208C44.4754 56.208 44.2805 54.9454 44.6171 53.2269C45.3258 49.5969 47.009 43.9503 46.9913 43.7574C46.9913 43.6522 47.3102 42.6701 45.8928 42.1616C44.5108 41.653 44.0147 42.4948 43.8907 42.4948C43.7667 42.4948 43.6781 42.7929 43.6781 42.7929C43.6781 42.7929 45.2195 36.4448 40.737 36.4448C37.9377 36.4448 34.0753 39.4785 32.1618 42.2142C30.957 42.863 28.388 44.2484 25.6418 45.739C24.5964 46.3176 23.5157 46.8963 22.5058 47.44C22.4349 47.3698 22.364 47.2821 22.2932 47.212C16.8716 41.4777 6.84357 37.4268 7.26879 29.7284C7.42825 26.9226 8.40271 19.5575 26.5276 10.614C41.4457 3.3365 53.3164 5.35316 55.3716 9.82488C58.3127 16.208 49.011 28.0625 33.5969 29.781C27.7147 30.4299 24.6319 28.1853 23.8523 27.3435C23.0373 26.4667 22.9133 26.4141 22.6121 26.5895C22.116 26.8525 22.4349 27.6416 22.6121 28.0976C23.0727 29.29 24.9685 31.3944 28.1754 32.429C31.0101 33.3409 37.9022 33.8494 46.2471 30.6579C55.5842 27.0805 62.8838 17.1375 60.74 8.80778C58.5962 0.355349 44.4222 -2.4329 31.0101 2.28433C23.0373 5.09011 14.3912 9.50923 8.17238 15.2611C0.784212 22.1002 -0.385138 28.045 0.0932325 30.5351C1.81182 39.3733 14.1254 45.1252 19.0509 49.3865C18.8028 49.5268 18.5725 49.6495 18.3776 49.7547C15.9149 50.9647 6.52466 55.8223 4.18596 60.9604C1.52834 66.7824 4.61118 70.956 6.64868 71.5171C12.9738 73.2532 19.4761 70.1318 22.9664 64.9761C26.4568 59.8205 26.0315 53.1217 24.4193 50.0529C24.4015 50.0178 24.3838 49.9827 24.3484 49.9476C24.9862 49.5794 25.6418 49.1936 26.2796 48.8253C27.5375 48.0888 28.7777 47.4049 29.8408 46.8437C29.2384 48.4746 28.7955 50.4211 28.5829 53.2269C28.3171 56.5237 29.6813 60.8025 31.4708 62.486C32.2681 63.2225 33.2071 63.2401 33.8095 63.2401C35.9002 63.2401 36.8392 61.5215 37.8845 59.4873C39.1602 56.9972 40.3118 54.1037 40.3118 54.1037C40.3118 54.1037 38.8767 61.9248 42.7745 61.9248C44.1919 61.9248 45.627 60.1011 46.2648 59.1717V59.1892C46.2648 59.1892 46.3003 59.1366 46.3712 59.0138C46.5129 58.7859 46.6015 58.6456 46.6015 58.6456V58.6105C47.1684 57.6285 48.4441 55.4014 50.3399 51.7013C52.7849 46.9314 55.1413 40.9691 55.1413 40.9691C55.1413 40.9691 55.3539 42.4246 56.0803 44.8446C56.5055 46.265 57.3914 47.8258 58.1001 49.3339C57.5331 50.123 57.1788 50.5614 57.1788 50.5614C57.1788 50.5614 57.1788 50.5614 57.1965 50.5789C56.7359 51.1752 56.2398 51.824 55.6905 52.4553C53.7593 54.735 51.4561 57.3479 51.1371 58.102C50.7651 58.9963 50.8537 59.6451 51.5624 60.1712C52.0762 60.557 52.9975 60.6096 53.9365 60.557C55.6728 60.4343 56.8953 60.0134 57.4977 59.7504C58.4367 59.4172 59.5352 58.9086 60.5628 58.1546C62.4586 56.7692 63.6102 54.7876 63.5039 52.1747C63.4508 50.7368 62.9724 49.2988 62.3877 47.9485C62.5649 47.703 62.7243 47.4575 62.9015 47.212C65.8958 42.8806 68.2167 38.1283 68.2167 38.1283C68.2167 38.1283 68.4294 39.5838 69.1558 42.0038C69.5101 43.2313 70.2365 44.564 70.8744 45.8617C68.0573 48.1239 66.321 50.7543 65.7009 52.4728C64.5847 55.6644 65.4528 57.1024 67.1005 57.4356C67.8447 57.5934 68.9077 57.2427 69.6873 56.9095C70.6795 56.5938 71.8488 56.0502 72.965 55.2436C74.8608 53.8582 76.6857 51.9292 76.5794 49.3163C76.5262 48.1239 76.2073 46.949 75.7644 45.8091C78.1562 44.8271 81.2391 44.2835 85.1723 44.7394C93.6058 45.7214 95.2713 50.9297 94.9523 53.1217C94.6334 55.3137 92.8617 56.5062 92.277 56.8744C91.6923 57.2427 91.4974 57.3654 91.5506 57.6285C91.6215 58.0143 91.9049 57.9967 92.401 57.9266C93.092 57.8038 96.8304 56.1554 96.9898 52.1221C97.2556 46.9665 92.2947 41.3374 83.5246 41.39ZM18.4662 63.0998C15.6669 66.116 11.769 67.2558 10.0859 66.2913C8.27868 65.2567 8.98738 60.8025 12.4246 57.6109C14.5152 55.6644 17.2083 53.8582 18.9977 52.7534C19.4052 52.5079 20.0076 52.1572 20.734 51.7188C20.8581 51.6486 20.9289 51.6136 20.9289 51.6136C21.0707 51.5259 21.2124 51.4382 21.3541 51.3505C22.6121 55.9099 21.4073 59.9257 18.4662 63.0998ZM38.8412 49.3865C37.8668 51.7363 35.8293 57.7512 34.5891 57.418C33.526 57.1375 32.8705 52.5781 34.3765 48.0713C35.1383 45.8091 36.7506 43.1085 37.6896 42.0564C39.2133 40.3729 40.8965 39.8117 41.304 40.4956C41.8178 41.39 39.4436 47.9134 38.8412 49.3865ZM55.6551 57.3479C55.2476 57.5583 54.8578 57.6986 54.6806 57.5934C54.5566 57.5233 54.8578 57.2427 54.8578 57.2427C54.8578 57.2427 56.9662 54.9981 57.7989 53.981C58.2773 53.3847 58.8442 52.6833 59.4466 51.8941V52.1221C59.4466 54.8052 56.8244 56.6114 55.6551 57.3479ZM68.6242 54.4194C68.3231 54.2089 68.3762 53.5075 69.3861 51.3155C69.7759 50.4562 70.6972 49.0182 72.274 47.6329C72.4512 48.194 72.5752 48.7376 72.5575 49.2462C72.5398 52.6307 70.0948 53.8933 68.6242 54.4194Z" fill="#CD6799"/>
</svg>
