<svg width="72" height="72" viewBox="0 0 72 72" fill="none" xmlns="http://www.w3.org/2000/svg">
<path d="M35.244 16.3079C23.616 16.6775 20.16 24.9839 19.368 29.4839C20.4 27.8159 23.652 24.156 28.44 24.156C34.02 24.156 38.268 30.384 40.86 32.328C44.0091 34.6898 50.3369 37.8083 58.644 35.28C65.268 33.264 68.3401 26.2319 69.012 22.8959C65.808 27.2519 60.948 29.8684 54.936 26.7839C50.796 24.6599 47.7 15.912 35.244 16.3079Z" fill="#07B6D5"/>
<path d="M18.792 36.0719C7.16402 36.4414 3.70802 44.7479 2.91602 49.2479C3.94801 47.5798 7.20002 43.9199 11.988 43.9199C17.568 43.9199 21.816 50.1479 24.408 52.0919C27.5571 54.4538 33.8849 57.5722 42.192 55.0439C48.816 53.0279 51.888 45.9958 52.56 42.6599C49.356 47.0159 44.496 49.6323 38.484 46.5479C34.344 44.4239 31.248 35.6759 18.792 36.0719Z" fill="#07B6D5"/>
</svg>
